<svg xmlns="http://www.w3.org/2000/svg" width="1280" height="560" viewBox="0 0 1280 560" fill="none" role="img" aria-labelledby="title desc">
  <title id="title">batmon - Know your battery. Own your workday.</title>
  <desc id="desc">A dark green product cover with a battery illustration and three areas of focus: runtime, energy and health. Local battery insights for Apple Silicon MacBooks.</desc>
  <defs>
    <pattern id="grid" width="40" height="40" patternUnits="userSpaceOnUse"><path d="M40 0H0V40" stroke="#243330" stroke-width="1"/></pattern>
    <linearGradient id="fill" x1="952" y1="213" x2="952" y2="391" gradientUnits="userSpaceOnUse"><stop stop-color="#B9E6CC"/><stop offset="1" stop-color="#79AF99"/></linearGradient>
    <linearGradient id="glass" x1="860" y1="150" x2="1074" y2="409" gradientUnits="userSpaceOnUse"><stop stop-color="#213B31"/><stop offset="1" stop-color="#14221D"/></linearGradient>
  </defs>
  <rect width="1280" height="560" rx="24" fill="#101917"/>
  <path d="M770 0H1256Q1280 0 1280 24V536Q1280 560 1256 560H770Z" fill="url(#grid)"/>
  <path d="M769 56V453" stroke="#2D4038"/>
  <g font-family="-apple-system,BlinkMacSystemFont,Segoe UI,Arial,sans-serif">
    <rect x="60" y="53" width="16" height="27" rx="4" stroke="#B5DFC9" stroke-width="2"/>
    <path d="M65 49H71" stroke="#B5DFC9" stroke-width="3" stroke-linecap="round"/>
    <rect x="63" y="62" width="10" height="15" rx="2" fill="#B5DFC9"/>
    <text x="90" y="78" fill="#F0F4EE" font-size="30" font-weight="650" letter-spacing="-1">batmon</text>
    <text x="60" y="155" fill="#A7CEB9" font-size="12" font-weight="600" letter-spacing="2.8">BATTERY INSIGHT FOR YOUR MAC</text>
    <text x="56" y="237" fill="#F0F4EE" font-size="66" font-weight="600" letter-spacing="-3">Know your battery.</text>
    <text x="56" y="311" fill="#B5DFC9" font-size="66" font-weight="600" letter-spacing="-3">Own your workday.</text>
    <text x="60" y="364" fill="#ACBCB2" font-size="21">Understand the drain. Plan your reserve.</text>
    <text x="60" y="394" fill="#ACBCB2" font-size="21">See the trend behind the percentage.</text>
    <rect x="920" y="123" width="60" height="12" rx="5" fill="#829C8C"/>
    <rect x="866" y="140" width="168" height="274" rx="27" fill="url(#glass)" stroke="#758F7F" stroke-width="2"/>
    <rect x="873" y="147" width="154" height="260" rx="22" stroke="#364D40"/>
    <rect x="884" y="215" width="132" height="181" rx="13" fill="url(#fill)"/>
    <path d="M881 352H1019" stroke="#1D3F2D" stroke-width="2" stroke-dasharray="3 5"/>
    <path d="M1034 352H1102" stroke="#89AF97"/>
    <circle cx="1102" cy="352" r="3" fill="#B5DFC9"/>
    <text x="1052" y="335" fill="#B5DFC9" font-size="11" letter-spacing="1.4">YOUR RESERVE</text>
    <text x="950" y="445" text-anchor="middle" fill="#A7BEAF" font-size="12" letter-spacing="2.5">RUNTIME / ENERGY / HEALTH</text>
    <path d="M60 472H1220" stroke="#2D4038"/>
    <circle cx="65" cy="515" r="4" fill="#B5DFC9"/>
    <text x="80" y="520" fill="#A8BCAF" font-size="14">On your Mac. Under your control.</text>
    <text x="1220" y="520" text-anchor="end" fill="#A8BCAF" font-size="14">Apple Silicon  ·  Menu bar + dashboard  ·  Open source</text>
  </g>
</svg>
